<svg width="40" height="40" viewBox="0 0 40 40" fill="none" xmlns="http://www.w3.org/2000/svg">
<path d="M25.118 24.2844C26.5208 22.8816 27.2222 21.1757 27.2222 19.1665C27.2222 17.1573 26.5208 15.4514 25.118 14.0486C23.7152 12.6458 22.0092 11.9444 20.0001 11.9444C17.9909 11.9444 16.2849 12.6458 14.8822 14.0486C13.4794 15.4514 12.778 17.1573 12.778 19.1665C12.778 21.1757 13.4794 22.8816 14.8822 24.2844C16.2849 25.6872 17.9909 26.3886 20.0001 26.3886C22.0092 26.3886 23.7152 25.6872 25.118 24.2844ZM16.7292 22.4373C15.8356 21.5437 15.3888 20.4534 15.3888 19.1665C15.3888 17.8796 15.8356 16.7893 16.7292 15.8957C17.6229 15.0021 18.7131 14.5553 20.0001 14.5553C21.287 14.5553 22.3773 15.0021 23.2709 15.8957C24.1645 16.7893 24.6113 17.8796 24.6113 19.1665C24.6113 20.4534 24.1645 21.5437 23.2709 22.4373C22.3773 23.3309 21.287 23.7778 20.0001 23.7778C18.7131 23.7778 17.6229 23.3309 16.7292 22.4373ZM8.97217 28.229C5.67605 25.9373 3.24091 22.9165 1.66675 19.1665C3.24091 15.4165 5.67605 12.3957 8.97217 10.104C12.2686 7.81234 15.9445 6.6665 20.0001 6.6665C24.0556 6.6665 27.7316 7.81234 31.028 10.104C34.3241 12.3957 36.7593 15.4165 38.3334 19.1665C36.7593 22.9165 34.3241 25.9373 31.028 28.229C27.7316 30.5207 24.0556 31.6665 20.0001 31.6665C15.9445 31.6665 12.2686 30.5207 8.97217 28.229ZM29.0626 26.2428C31.8173 24.4789 33.9169 22.1201 35.3613 19.1665C33.9169 16.2129 31.8173 13.8541 29.0626 12.0903C26.3079 10.3264 23.287 9.44442 20.0001 9.44442C16.7131 9.44442 13.6923 10.3264 10.9376 12.0903C8.18286 13.8541 6.07411 16.2129 4.61133 19.1665C6.07411 22.1201 8.18286 24.4789 10.9376 26.2428C13.6923 28.0066 16.7131 28.8886 20.0001 28.8886C23.287 28.8886 26.3079 28.0066 29.0626 26.2428Z" fill="#E3E3E3"/>
</svg>
