<svg width="24" height="24" viewBox="0 0 24 24" fill="none" xmlns="http://www.w3.org/2000/svg">
<path d="M14.2973 11.8125C13.9223 11.6715 13.9223 11.133 13.899 10.758C13.8053 9.42225 14.274 7.383 13.7115 6.516C13.3133 6 11.391 6.04725 10.2195 6.11775C9.89104 6.165 9.49279 6.23475 9.21154 6.37575C8.93029 6.51675 8.64904 6.75075 8.64904 6.9615C8.64904 7.266 9.35254 7.2195 9.60979 7.61775C9.89104 8.04 9.89104 8.9535 9.89104 9.7035C9.89104 10.5705 9.75004 11.7195 9.39904 11.766C8.85979 11.7892 8.55529 11.25 8.27404 10.8517C7.71154 10.0785 7.14904 9.117 6.72679 8.1795C6.51604 7.6875 6.39829 7.14825 6.09379 6.9375C5.62504 6.609 4.78129 6.58575 3.96079 6.609C3.21079 6.63225 2.13229 6.5385 1.92154 6.984C1.75729 7.476 2.10904 7.94475 2.29654 8.34375C3.25729 10.4295 4.28854 12.258 5.55454 13.992C6.72679 15.609 7.82779 16.8982 9.98404 17.5777C10.5938 17.7652 13.2653 18.3045 13.8045 17.5777C13.992 17.2965 13.9455 16.6635 14.0393 16.1947C14.133 15.726 14.25 15.2572 14.6955 15.234C15.0705 15.2107 15.2813 15.5385 15.516 15.7732C15.774 16.0312 15.9848 16.242 16.1723 16.4767C16.6178 16.9222 17.0865 17.5312 17.649 17.766C18.4223 18.0945 19.6178 18.0007 20.7428 17.9535C21.657 17.9302 22.3133 17.7427 22.3838 17.2035C22.431 16.7812 21.9615 16.1722 21.6803 15.8205C20.9768 14.9535 20.649 14.6955 19.8518 13.8982C19.5 13.5465 19.0545 13.1715 19.0545 12.75C19.0313 12.492 19.242 12.258 19.4295 12C20.25 10.7812 21.0705 9.91425 21.8205 8.64825C22.0313 8.27325 22.524 7.40625 22.3365 6.984C22.1258 6.51525 20.9535 6.6555 20.2268 6.6555C19.2893 6.6555 18.0705 6.585 17.8358 6.7725C17.3903 7.077 17.2028 7.56975 16.992 8.0385C16.5233 9.117 15.8903 10.218 15.234 11.0385C14.9993 11.3197 14.5545 11.9055 14.2965 11.8117L14.2973 11.8125Z" fill="white"/>
</svg>
